<svg viewBox="0 0 128 100" xmlns="http://www.w3.org/2000/svg">
  <defs>
    <linearGradient id="batGrad" x1="0%" y1="0%" x2="100%" y2="0%">
      <stop offset="0%" stop-color="#FFF3A3" />
      <stop offset="100%" stop-color="#FFE500" />
    </linearGradient>
  </defs>

  <ellipse cx="64" cy="90" rx="48" ry="5" fill="#000000" opacity="0.28" />

  <g>
    <rect x="46" y="26" width="7" height="56" rx="2.5" fill="#FFF8CC" />
    <rect x="58" y="26" width="7" height="56" rx="2.5" fill="#FFF8CC" />
    <rect x="70" y="26" width="7" height="56" rx="2.5" fill="#FFF8CC" />
    <rect x="44" y="20" width="20" height="7" rx="3" fill="#FFF8CC" />
    <rect x="59" y="20" width="20" height="7" rx="3" fill="#FFF8CC" />
  </g>

  <g transform="translate(95,84) rotate(18)">
    <rect x="-5.5" y="-74" width="11" height="32" rx="5" fill="#8B5A2B" />
    <rect x="-5.5" y="-62" width="11" height="2.4" fill="#FFF8CC" opacity="0.55" />
    <rect x="-5.5" y="-56" width="11" height="2.4" fill="#FFF8CC" opacity="0.55" />
    <path d="M -10 -46 Q -10 -54 0 -54 Q 10 -54 10 -46 L 10 -6 Q 10 12 0 20 Q -10 12 -10 -6 Z" fill="url(#batGrad)" stroke="#15151C" stroke-width="1.4" />
    <path d="M -9 -22 Q 0 -18 9 -22" stroke="#D8B85A" stroke-width="1" opacity="0.55" fill="none" />
  </g>

  <circle cx="24" cy="80" r="17" fill="#E11D48" />
  <circle cx="18" cy="73.5" r="5.5" fill="#FFFFFF" opacity="0.18" />
  <path d="M 9 74 Q 24 84 39 74" fill="none" stroke="#FFF8CC" stroke-width="1.8" stroke-linecap="round" />
  <path d="M 14 73 l 2.4 3.6 M 20 77.5 l 2.4 3.6 M 30 77.5 l 2.4 3.6 M 36 73 l 2.4 3.6" stroke="#FFF8CC" stroke-width="1.2" stroke-linecap="round" />
</svg>
